<svg version="1.1" xmlns="http://www.w3.org/2000/svg" viewBox="0 0 71.79681638688783 55.243571877194654" width="143.59363277377565" height="110.48714375438931">
  <!-- svg-source:excalidraw -->
  <g stroke-linecap="round"><g transform="translate(61.3788753716741 44.659391766041495) rotate(0 -25.470703125 -17.267578125)"><path d="M0.42 0.03 C-3.23 -0.45, -13.64 2.93, -22.17 -2.85 C-30.69 -8.63, -46.04 -29.36, -50.73 -34.66 M-0.82 -1 C-4.53 -1.81, -14.21 0.87, -22.64 -4.53 C-31.06 -9.93, -46.86 -28.56, -51.38 -33.41" stroke="#868e96" stroke-width="4" fill="none"></path></g><g transform="translate(61.3788753716741 44.659391766041495) rotate(0 -25.470703125 -17.267578125)"><path d="M-33.04 -23.63 C-38.09 -24.77, -41.85 -28.64, -51.38 -33.41 M-33.04 -23.63 C-37.77 -26.29, -43.24 -29, -51.38 -33.41" stroke="#868e96" stroke-width="4" fill="none"></path></g><g transform="translate(61.3788753716741 44.659391766041495) rotate(0 -25.470703125 -17.267578125)"><path d="M-43.61 -14.13 C-45.73 -17.94, -46.54 -24.46, -51.38 -33.41 M-43.61 -14.13 C-45.33 -19.53, -47.74 -25, -51.38 -33.41" stroke="#868e96" stroke-width="4" fill="none"></path></g></g><mask></mask></svg>